<svg width="58" height="58" viewBox="0 0 58 58" fill="none" xmlns="http://www.w3.org/2000/svg">
<path d="M32.3347 15.4884C32.6637 15.8349 37.4199 17.7668 37.9378 17.6233C38.3263 17.5183 43.366 13.1436 43.793 12.6011C45.0109 11.0437 44.6819 9.54577 45.4729 7.98137C48.1117 2.78068 57.1202 8.07586 53.5399 13.9485C51.9125 16.6188 49.5081 15.5444 47.1983 16.0064C45.1999 16.4054 41.9801 20.0836 41.7701 22.152C41.3536 26.1943 44.5524 27.3527 48.0872 26.6947C49.2981 26.4672 50.2116 25.5188 51.4155 25.1268C57.9251 22.9989 59.647 32.1439 54.3028 33.9638C49.3191 35.6577 49.8301 32.0389 46.7748 31.6714C45.2489 31.4859 42.5611 31.4299 41.8751 33.0853C41.7911 33.2918 40.9757 37.2326 40.9792 37.4566C40.9862 38.755 43.037 41.3063 44.024 42.1218C45.8929 43.6687 47.9612 42.9687 49.5466 45.3486C51.132 47.7284 50.5791 49.7548 48.3217 51.4277C45.7039 53.3666 43.5235 52.6386 41.6931 50.0558C40.3527 48.1624 41.3151 46.7765 40.3107 44.7851C39.6667 43.5112 36.3244 39.8644 34.9035 40.0744C34.7495 40.0954 32.1002 41.1068 31.9777 41.2048C31.2987 41.7613 31.0818 46.213 31.2287 47.221C31.4772 48.9394 32.8036 49.8038 33.1466 51.2492C34.6445 57.5943 25.4996 59.1482 24.4392 53.6571C23.7882 50.2728 26.952 49.5063 27.0255 46.206C27.0815 43.7317 26.8295 41.7543 24.4392 40.7114C21.8108 39.5669 20.0469 40.7044 17.9226 42.3773C14.5663 45.0196 16.4596 48.0959 12.8934 49.5973C6.56225 52.2607 4.03891 43.0387 9.91505 41.0229C12.6904 40.0709 14.3248 41.6528 16.2952 38.3C17.7336 35.8502 18.0626 31.8919 14.5523 31.3529C9.83105 30.6285 9.37608 32.6864 5.93229 33.5438C-0.524815 35.1537 -2.27121 26.0753 3.52794 24.8398C6.38026 24.2309 7.62269 26.1208 10.272 26.5687C12.5574 26.9537 16.3162 26.6772 17.0301 23.9964C17.7441 21.3156 14.9267 16.9478 12.4839 15.5759C10.041 14.204 7.01722 14.3335 6.16328 11.0507C4.73536 5.54901 12.6099 2.77718 14.3003 7.80988C15.0737 10.1092 14.7798 11.2957 16.6976 13.462C17.0686 13.882 20.0364 16.3214 20.3514 16.4578C22.0943 17.1963 24.1942 16.0064 25.9896 16.4613C27.7325 16.0939 27.512 12.2861 27.3125 10.8827C27.0955 9.38128 26.371 9.67526 25.5766 8.78282C21.2789 3.94261 28.8104 -2.82598 32.8876 1.81824C36.3349 5.745 32.5027 7.3759 31.9847 10.9527C31.8377 11.9746 31.6557 14.7885 32.3347 15.4989V15.4884ZM29.0099 22.642C22.0663 23.4504 21.9158 34.5727 29.9548 34.1423C37.7803 33.7223 36.0235 21.8265 29.0099 22.642Z" fill="#2C2C2C"/>
</svg>
