<svg width="58" height="46" viewBox="0 0 58 46" fill="none" xmlns="http://www.w3.org/2000/svg">
<path d="M30.9537 17.7807C34.3192 17.4688 34.4134 14.3717 35.603 12.0942C38.4389 6.67977 45.1045 2.87189 51.1246 2.22999C53.0793 2.02328 57.8809 1.51556 57.4384 4.52198C57.1556 6.44405 51.9623 8.54382 50.5843 10.397C49.072 12.4279 49.4419 14.8577 48.7383 16.8921C48.0747 18.807 45.1408 21.8061 43.2949 22.691C41.8878 23.3655 40.5532 23.3728 39.2984 24.1271C43.9912 27.7609 41.9531 31.7538 38.584 35.3876C37.6846 36.3595 36.3283 36.9144 35.5014 38.1075C33.9565 40.3306 34.5912 43.4929 31.8132 44.9363C29.9455 45.9082 27.6173 45.1575 27.4069 42.9054C27.2111 40.8056 28.8431 39.2172 28.9664 37.9262C29.0353 37.2117 28.038 30.6731 27.3272 31.5652C26.9174 33.0376 26.9319 38.1438 25.2745 38.423C23.6172 38.7022 22.9245 33.4873 22.968 32.2869C21.8583 31.159 19.6969 35.6813 19.5011 36.617C18.8773 39.6198 20.2409 44.5011 16.4511 45.5347C10.9642 47.0288 13.0676 39.1302 12.3821 36.889C12.179 36.2289 10.2896 35.2969 9.60782 34.2235C7.98675 31.6631 8.16082 28.4572 9.90157 26.0311C10.315 25.4544 11.519 25.1861 11.6459 24.1235C11.0621 23.1878 9.97048 23.0537 9.18351 22.3175C8.49447 21.6756 6.36205 18.3065 6.08281 17.4361C5.3031 14.9955 7.78004 12.1994 5.63312 8.09776C4.59592 6.09227 -1.37338 3.56456 0.291204 1.08038C1.73095 -1.06292 11.432 1.47567 13.597 2.67606C19.8601 6.1503 20.3896 11.7098 23.6245 16.9465C24.2736 17.9982 24.4948 18.5459 25.5139 17.5957C28.0307 15.2493 27.28 10.7995 25.3217 8.3625C24.4767 7.3108 22.1303 6.34613 21.735 5.07684C21.017 2.78486 21.6444 1.71502 24.1648 2.25175C27.2691 2.91541 28.009 10.0742 28.785 12.6999C29.3689 12.6455 29.3181 12.1341 29.4777 11.7642C30.4714 9.43958 31.0915 6.75231 32.6219 4.75407C33.5177 3.5827 36.2811 0.957072 37.0536 3.5283C37.826 6.09953 35.6429 5.87468 34.3917 7.24914C34.0472 7.62631 30.9573 11.8585 30.9573 12.1559V17.777L30.9537 17.7807ZM14.2788 10.1613C13.9996 11.3798 12.9261 11.7098 12.6142 13.0407C11.6133 17.2911 17.666 21.603 18.5835 18.9956C19.2327 17.1533 16.3242 11.1042 14.2824 10.1613H14.2788ZM42.8343 10.5819C39.8134 10.9011 37.1261 15.9166 36.6619 18.6003C36.6075 18.9194 36.2521 19.4851 36.9448 19.5939C38.526 19.8369 43.0011 15.9384 43.799 14.4877C44.5315 13.1495 44.9051 10.3644 42.8343 10.5856V10.5819ZM32.6618 26.5642C29.5212 27.3112 30.9972 32.849 34.5911 31.7755C37.8587 30.8 37.2095 25.4798 32.6618 26.5642ZM17.4339 31.8154C17.7458 31.5616 18.5074 30.0348 18.6524 29.5706C19.5627 26.6403 15.4502 25.7482 14.1229 27.964C12.2298 31.1227 15.0404 33.7665 17.4339 31.8154Z" fill="#2C2C2C"/>
</svg>
