<svg width="58" height="66" viewBox="0 0 58 66" fill="none" xmlns="http://www.w3.org/2000/svg">
<path d="M52.2793 41.4662C44.5471 49.1899 30.4136 49.6922 21.9858 42.6512C19.075 40.2212 17.1816 31.7977 17.641 28.084C17.9974 25.2118 20.8395 22.8763 21.3418 20.6051C21.6166 19.3515 20.9941 17.7072 21.0842 17.5827C21.2173 17.3938 24.9611 16.7669 25.618 16.7025C26.6913 16.5995 27.5456 17.1018 28.7349 16.8914C30.5896 16.5609 33.0797 14.2811 34.9387 14.6375C35.9562 14.835 41.7736 20.1586 42.482 21.3006C43.4781 22.9063 44.1049 28.625 43.5081 30.3466C42.0827 34.4725 33.0368 38.594 30.0959 34.1161C29.5077 33.2231 28.8422 30.8747 28.795 29.7971C28.7478 28.7195 29.1599 25.4737 30.5209 26.5986C30.7356 26.7746 31.5728 30.9648 32.2125 31.8879C33.1183 33.1888 38.1758 31.772 39.1247 30.2607C42.2974 25.1947 37.0639 18.9694 31.6286 19.7551C30.5681 19.9096 26.687 21.3178 25.9485 22.0219C22.7114 25.0959 22.3207 30.3337 22.8016 34.5412C23.2996 38.9031 29.688 42.5009 33.7537 42.9088C41.1167 43.6472 44.7961 41.097 49.6518 36.061C54.2327 31.3126 54.383 15.5476 48.9649 11.3789C47.342 10.1295 45.0966 9.66583 43.3793 8.80717C41.8123 8.02579 40.7561 6.65623 38.7898 6.0981C35.6643 5.21798 29.3231 5.37254 26.1246 6.08523C8.65517 9.97495 0.875724 34.3995 12.5105 47.8332C13.82 49.3444 21.329 54.8871 23.2352 55.5697C26.8716 56.8663 28.8465 56.8834 32.3627 57.1668C33.4189 57.2527 34.6897 58.2444 35.8832 58.2874C41.0051 58.4634 49.9395 53.4488 53.3998 53.7322C59.0198 54.1916 54.5719 60.2236 51.704 61.722C50.6221 62.2887 43.6798 65.0579 42.7396 65.2081C39.6914 65.6847 29.4132 64.5899 26.219 63.7484C16.7308 61.2454 4.14721 50.1258 1.97051 40.3414C1.51972 38.2634 0.592368 33.3906 0.506502 31.4972C0.261784 26.3152 6.98508 12.9888 10.5657 8.9832C17.8256 0.86029 29.6837 -0.895666 39.979 1.47423C44.0705 2.41875 53.1594 7.8927 55.0914 11.6923C59.3375 20.0298 59.2688 34.4853 52.2793 41.4662Z" fill="#2C2C2C"/>
</svg>
