<svg width="58" height="60" viewBox="0 0 58 60" fill="none" xmlns="http://www.w3.org/2000/svg">
<path d="M28.3906 0.749023C28.4271 0.755464 28.4352 0.764762 28.4443 0.776367C28.4947 0.840486 28.5536 1.02976 28.5391 1.41797C28.5257 1.77602 28.4566 2.18386 28.3867 2.57617C28.3529 2.76597 28.3188 2.95702 28.2939 3.12207C28.2702 3.2797 28.2488 3.45269 28.2549 3.59961C28.2845 4.32627 28.4331 5.16036 28.5781 5.9541C28.7264 6.76565 28.8712 7.53752 28.916 8.2002V8.20117C28.9702 8.98202 29.015 11.3611 29.125 13.6904C29.1793 14.8404 29.249 15.9688 29.3447 16.8467C29.3924 17.2841 29.4479 17.6725 29.5137 17.9746C29.5463 18.1247 29.5849 18.2663 29.6309 18.3877C29.6677 18.485 29.7333 18.633 29.8525 18.749L29.8516 18.751L29.8594 18.7578L29.8691 18.7676L29.8789 18.7764C29.968 18.856 30.0686 18.895 30.1162 18.9121C30.1769 18.9338 30.2417 18.9503 30.3027 18.9639C30.4259 18.9911 30.5755 19.0139 30.7344 19.0332C31.0546 19.0721 31.4558 19.1018 31.8545 19.123C32.2544 19.1444 32.6602 19.1573 32.9932 19.1611C33.3068 19.1647 33.6021 19.1614 33.75 19.1396H33.751C34.9916 18.9557 35.6658 18.0363 36.1328 17.1328C36.3659 16.6817 36.5708 16.1857 36.7637 15.7529C36.9134 15.4169 37.0584 15.1117 37.2148 14.8477L37.376 14.5977C37.7313 14.0941 38.1677 13.6454 38.6562 13.1328C39.1367 12.6288 39.656 12.0729 40.123 11.3936L40.124 11.3945C40.32 11.11 40.5936 10.5917 40.8887 10.0205C41.1919 9.43352 41.5319 8.76216 41.876 8.125C42.2216 7.48497 42.5587 6.90297 42.8516 6.49609C42.956 6.35099 43.0464 6.2393 43.1221 6.15918C43.1429 6.20509 43.1593 6.25394 43.167 6.30957C43.1904 6.47972 43.1599 6.70813 43.0713 6.99512C42.9842 7.27717 42.854 7.57647 42.7119 7.87891C42.5768 8.16657 42.4189 8.48008 42.3125 8.7373C41.7287 10.1476 40.7792 11.7007 39.8271 13.2861C38.8893 14.8479 37.946 16.4472 37.4434 17.8857C37.1508 18.7227 37.0375 19.9802 37.2842 20.9902C37.4079 21.4965 37.6369 22.0037 38.0449 22.3447C38.4779 22.7065 39.0429 22.8249 39.6914 22.666L39.6924 22.665C39.8159 22.6343 39.9969 22.5579 40.1777 22.4766C40.3742 22.3881 40.6196 22.2714 40.8955 22.1357C41.4485 21.8638 42.1373 21.5101 42.832 21.1475C44.2171 20.4243 45.6475 19.6515 46.0781 19.3975L46.0771 19.3965C46.4096 19.2014 47.0025 18.7679 47.6807 18.2725C48.3745 17.7656 49.1887 17.1723 49.998 16.6289C50.8115 16.0827 51.599 15.6006 52.2412 15.3096C52.5641 15.1632 52.8253 15.0776 53.0186 15.0469C53.0699 15.0387 53.1106 15.0349 53.1426 15.0342L53.2344 15.3271C51.8595 16.3346 50.5521 17.4519 49.2607 18.5508C48.045 19.5853 46.842 20.6035 45.5879 21.5225L45.0479 21.9102C44.624 22.2065 44.1014 22.4756 43.5244 22.7607C42.9595 23.04 42.3409 23.3351 41.7793 23.668C40.7373 24.2856 39.733 25.1241 39.5693 26.459L39.5479 26.7324C39.5099 27.8101 39.7703 28.6164 40.3105 29.1689C40.8413 29.7117 41.5654 29.9297 42.2832 30.0059C43.0023 30.0822 43.7843 30.0224 44.4951 29.9502C45.2301 29.8755 45.8684 29.7906 46.3887 29.7881H46.3896C46.9482 29.7851 47.5084 29.938 48.1523 30.123C48.773 30.3014 49.4751 30.5109 50.2158 30.5361C50.5956 30.549 51.201 30.4855 51.8555 30.4092C52.5302 30.3305 53.2916 30.2336 54.0352 30.165C54.7812 30.0963 55.4806 30.0592 56.0254 30.0938C56.2984 30.1111 56.5105 30.1446 56.6611 30.1914C56.8215 30.2413 56.8483 30.2855 56.8398 30.2734C56.9456 30.4258 57.0217 30.8035 56.9375 31.166C56.8982 31.3351 56.8334 31.4552 56.7646 31.5264C56.7091 31.5839 56.6408 31.6204 56.5342 31.625C51.3057 30.931 45.7661 31.7053 40.708 32.2773L40.502 32.3008L40.373 32.4629C39.8778 33.0852 39.5555 33.709 39.5918 34.375C39.6285 35.0487 40.0233 35.6236 40.6152 36.167L40.6475 36.1963L40.6855 36.2207L51.1182 42.8506C51.31 43.0314 51.4466 43.2079 51.5293 43.3613C51.6185 43.527 51.628 43.6313 51.6221 43.6768C51.6193 43.698 51.6152 43.7254 51.5479 43.7646C51.461 43.8153 51.2778 43.8742 50.9414 43.875L50.8242 43.8682C50.5326 43.8339 50.1083 43.6773 49.5605 43.3896C48.9551 43.0717 48.2724 42.6342 47.5703 42.1611C46.8889 41.702 46.1455 41.1791 45.5107 40.7559C44.8677 40.3271 44.2527 39.9432 43.7568 39.7275C43.2988 39.5277 42.8664 39.4442 42.4893 39.3789C42.0981 39.3112 41.7918 39.2652 41.4902 39.1562H41.4893C41.0581 39.0001 40.6487 38.7914 40.2051 38.5801C39.7792 38.3772 39.3165 38.169 38.8457 38.0762C38.3581 37.9801 37.8429 38.003 37.3311 38.2734C36.832 38.5372 36.3889 39.0086 35.9775 39.7041C35.7067 40.1616 35.5625 40.5742 35.5664 40.9639C35.5706 41.3722 35.7361 41.6825 35.9365 41.9268C36.1162 42.1457 36.3678 42.3569 36.5361 42.5146C36.725 42.6916 36.8799 42.8588 36.9912 43.0605V43.0615C37.6772 44.2997 38.3606 45.8235 39.0371 47.3916C39.5414 48.5606 40.0429 49.757 40.5342 50.8584L41.0225 51.9238C41.2514 52.4086 41.654 52.8499 41.9443 53.1973C42.2284 53.5372 42.4189 53.8005 42.499 54.043L42.5264 54.1455C42.644 54.7329 42.3999 55.1505 42.1523 55.2979C42.0345 55.3679 41.9065 55.3872 41.7715 55.3467C41.6309 55.3044 41.4349 55.1817 41.2305 54.8809C40.8437 54.3114 40.4272 53.4367 39.9863 52.4834C39.5558 51.5524 39.1047 50.5516 38.6641 49.8027C38.1788 48.9777 37.2338 47.3243 36.2148 45.79C35.7053 45.0229 35.1697 44.2744 34.6572 43.668C34.1599 43.0795 33.6319 42.5605 33.1309 42.3301C32.1747 41.8901 31.3678 41.7944 30.7227 42.1025C30.0796 42.4097 29.7595 43.0416 29.5889 43.6582C29.4161 44.2826 29.3661 45.0015 29.3438 45.6396C29.3203 46.3111 29.3267 46.8604 29.2822 47.2607C29.1899 48.0913 29.0275 48.9385 28.876 49.8311C28.7263 50.7126 28.5891 51.6265 28.5654 52.54C28.5533 53.0255 28.5932 53.6141 28.6396 54.2188C28.6869 54.833 28.7422 55.4726 28.7686 56.0957C28.795 56.7193 28.7908 57.3021 28.7256 57.7959C28.659 58.2997 28.5363 58.6503 28.3721 58.8594H28.3711C28.3243 58.919 28.1319 59.0091 27.8418 58.916C27.6056 58.8401 27.5028 58.7068 27.4844 58.583L27.4814 58.5303V58.5205C27.5372 55.7283 27.6393 52.9101 27.4912 50.083C27.4646 49.5827 27.2864 49.1843 27.1387 48.8848C27.0595 48.7242 27.0019 48.6161 26.9521 48.502C26.905 48.3939 26.8866 48.3246 26.8818 48.2764C26.8451 47.9066 26.9 47.372 26.9639 46.6982C27.0247 46.0563 27.0891 45.3171 27.0342 44.6357C26.9797 43.9609 26.8024 43.2518 26.2998 42.7432C25.7785 42.2156 25.0073 42.0007 23.9902 42.1045V42.1055C23.522 42.1535 23.0622 42.376 22.6309 42.6787C22.1948 42.9848 21.7526 43.3974 21.3154 43.874C20.4411 44.8273 19.5443 46.0844 18.7061 47.3936C17.077 49.938 15.6313 52.7427 14.9648 54.0615C14.6753 54.2432 14.3875 54.2052 14.1934 54.0703C13.993 53.931 13.8607 53.6682 13.9736 53.3145C15.5272 50.8088 17.2384 48.1401 18.5986 45.4629L18.8682 44.9238C19.1295 44.3913 19.4164 43.8972 19.7305 43.2803C20.0237 42.7042 20.3043 42.0853 20.4453 41.4824C20.5867 40.8779 20.6016 40.2302 20.2881 39.6445C19.9724 39.0549 19.3769 38.6259 18.5098 38.3467L18.2861 38.2754L18.0879 38.4004C17.7362 38.6239 17.3098 38.7157 16.7959 38.7812C16.3194 38.842 15.7112 38.8818 15.1895 39.0537V39.0547C15.1177 39.0784 15.0382 39.1202 14.9883 39.1475C14.9244 39.1823 14.8463 39.2278 14.7578 39.2803C14.5801 39.3857 14.3478 39.5285 14.0801 39.6963C13.5438 40.0323 12.8548 40.4739 12.1533 40.9277C10.7507 41.8352 9.29046 42.7963 8.88379 43.0674H8.88281C8.51956 43.3102 8.23229 43.6187 7.99316 43.8906C7.73889 44.1798 7.55452 44.4077 7.34863 44.5869C7.1565 44.7541 6.99221 44.8343 6.81543 44.8496C6.67737 44.8615 6.4873 44.8367 6.2207 44.7188L6.30273 43.9229C8.85884 42.0673 12.0264 40.0504 14.3818 37.9023L14.3828 37.9014C14.7736 37.544 15.2292 37.1385 15.6318 36.7207C16.0321 36.3053 16.4156 35.8419 16.6455 35.3545C16.8804 34.8563 16.975 34.2843 16.709 33.7148C16.4534 33.1678 15.9108 32.726 15.1172 32.3613L15.0254 32.3193L14.9229 32.3164L0.731445 31.9121C0.698867 31.892 0.658262 31.8539 0.617188 31.7783C0.556546 31.6666 0.512484 31.5046 0.5 31.3154C0.487615 31.1277 0.508738 30.9426 0.553711 30.7959C0.577858 30.7171 0.60421 30.6637 0.625977 30.6289L0.670898 30.5732C0.953774 30.3722 1.22575 30.4062 1.67773 30.6143C1.78986 30.6659 1.90286 30.7235 2.02637 30.7861C2.1463 30.8469 2.27712 30.9135 2.40918 30.9727C2.66775 31.0884 2.98238 31.2024 3.32324 31.2012C4.37163 31.1976 6.74946 31.1129 9.07812 30.9697C10.2433 30.8981 11.4016 30.8111 12.3789 30.7119C13.2223 30.6263 13.9607 30.529 14.4521 30.417L14.6475 30.3682C15.2909 30.1896 15.7767 29.9352 16.1016 29.5723C16.438 29.1963 16.5525 28.7591 16.5596 28.3242C16.5663 27.9075 16.475 27.466 16.3789 27.0508C16.2785 26.617 16.1695 26.1965 16.1025 25.749L16.0703 25.5332L15.8906 25.4102L4.92578 17.915C4.75717 17.7512 4.70208 17.6287 4.68848 17.5645C4.67699 17.5098 4.69076 17.4903 4.7002 17.4785C4.732 17.439 4.93936 17.3003 5.36914 17.4551C5.97053 17.6716 6.86053 18.1801 7.8291 18.7539C8.77008 19.3113 9.77433 19.9236 10.541 20.2861H10.542C11.03 20.5163 11.5374 20.6357 11.9844 20.7412C12.4478 20.8506 12.8463 20.9452 13.2109 21.1152L13.2119 21.1162C13.7938 21.3877 14.3763 21.7882 14.9766 22.1943C15.5519 22.5836 16.1673 22.995 16.7471 23.2002C17.0443 23.3053 17.3648 23.3687 17.6904 23.3311C18.027 23.2921 18.3367 23.1485 18.6035 22.8926C19.1083 22.4084 19.4347 21.5478 19.6465 20.2949L19.6699 20.1543L19.6162 20.0225C18.9468 18.382 17.5583 16.5479 16.2705 14.8105C14.95 13.029 13.7392 11.3545 13.2715 9.94043H13.2725C13.1801 9.65902 13.1297 9.38897 13.1221 9.1123C13.4153 9.08491 13.6232 9.11884 13.7773 9.17871C13.9878 9.26049 14.1597 9.41275 14.333 9.65625C14.5151 9.91224 14.6664 10.2199 14.8672 10.6025C15.0594 10.9689 15.2875 11.3828 15.6025 11.7666C16.0199 12.2748 16.5053 12.7294 16.9551 13.1533C17.4142 13.586 17.8372 13.9871 18.1816 14.4209C18.3472 14.6295 18.6257 15.0603 18.9893 15.626C19.3443 16.1783 19.7653 16.8363 20.1973 17.4619C20.627 18.0844 21.0802 18.694 21.502 19.1455C21.712 19.3704 21.9302 19.5724 22.1465 19.7178C22.3492 19.8539 22.6264 19.9923 22.9346 19.9609H22.9365C23.0222 19.9519 23.1286 19.918 23.1904 19.8984C23.2742 19.8719 23.378 19.8358 23.4932 19.7949C23.7246 19.7127 24.015 19.6043 24.3047 19.4922C24.5943 19.3801 24.8875 19.263 25.126 19.1631C25.3446 19.0715 25.5654 18.9744 25.6719 18.9082C26.3322 18.5029 26.7691 18.0231 27.0322 17.4717C27.2926 16.9258 27.3646 16.3492 27.3604 15.7822C27.3562 15.223 27.2762 14.6319 27.21 14.0693C27.1421 13.4936 27.0855 12.9277 27.1074 12.3574V12.3564C27.2257 9.2643 27.5109 6.03929 27.8252 2.94141C27.8501 2.69562 27.808 2.40639 27.7744 2.17773C27.7368 1.92146 27.7003 1.68937 27.6934 1.46973C27.6864 1.24918 27.7131 1.10042 27.7607 1.00391C27.7974 0.929896 27.8607 0.854457 28.0293 0.801758L28.0303 0.800781C28.2288 0.73826 28.3398 0.740076 28.3906 0.749023ZM37.458 26.4082C35.9372 22.4144 31.9337 19.5443 26.3896 20.6104H26.3848L26.3369 20.6191C24.3435 21.0093 22.3596 22.1274 20.8096 23.6406C19.2602 25.1532 18.1075 27.0978 17.8359 29.1709C16.6726 38.0438 26.7443 44.2914 33.7578 38.8037C38.0143 35.4745 38.9753 30.3933 37.458 26.4082Z" fill="#2C2C2C" stroke="black"/>
</svg>
